<svg xmlns="http://www.w3.org/2000/svg" width="251.34" height="35" viewBox="0 0 251.34 35"><rect class="svg__rect" x="0" y="0" width="115.03" height="35" fill="#043C5E"/><rect class="svg__rect" x="113.03" y="0" width="138.31" height="35" fill="#FFDF1B"/><path class="svg__text" d="M15.69 22L14.22 22L14.22 13.47L16.14 13.47L18.60 20.01L21.06 13.47L22.97 13.47L22.97 22L21.49 22L21.49 19.19L21.64 15.43L19.12 22L18.06 22L15.55 15.43L15.69 19.19L15.69 22ZM28.49 22L26.95 22L30.17 13.47L31.50 13.47L34.73 22L33.18 22L32.49 20.01L29.18 20.01L28.49 22ZM30.83 15.28L29.60 18.82L32.07 18.82L30.83 15.28ZM40.17 22L38.69 22L38.69 13.47L40.17 13.47L40.17 17.47L40.99 16.46L43.48 13.47L45.28 13.47L42.11 17.25L45.46 22L43.70 22L41.14 18.31L40.17 19.34L40.17 22ZM54.82 22L49.24 22L49.24 13.47L54.78 13.47L54.78 14.66L50.72 14.66L50.72 17.02L54.23 17.02L54.23 18.19L50.72 18.19L50.72 20.82L54.82 20.82L54.82 22ZM66.37 22L64.40 13.47L65.87 13.47L67.20 19.88L68.83 13.47L70.07 13.47L71.68 19.89L72.99 13.47L74.46 13.47L72.49 22L71.08 22L69.45 15.77L67.80 22L66.37 22ZM80.10 22L78.62 22L78.62 13.47L80.10 13.47L80.10 22ZM86.59 14.66L83.96 14.66L83.96 13.47L90.72 13.47L90.72 14.66L88.06 14.66L88.06 22L86.59 22L86.59 14.66ZM95.96 22L94.48 22L94.48 13.47L95.96 13.47L95.96 17.02L99.78 17.02L99.78 13.47L101.25 13.47L101.25 22L99.78 22L99.78 18.21L95.96 18.21L95.96 22Z" fill="#FFFFFF"/><path class="svg__text" d="M126.14 20.93L126.14 20.93L127.43 19.40Q128.10 20.27 128.88 20.27L128.88 20.27Q128.88 20.27 128.89 20.27L128.89 20.27Q129.40 20.27 129.67 19.96Q129.94 19.65 129.94 19.05L129.94 19.05L129.94 15.44L127.04 15.44L127.04 13.60L132.30 13.60L132.30 18.91Q132.30 20.54 131.47 21.36Q130.65 22.17 129.06 22.17L129.06 22.17Q128.13 22.17 127.38 21.85Q126.62 21.53 126.14 20.93ZM138.80 22L136.38 22L140.09 13.60L142.43 13.60L146.14 22L143.68 22L143.01 20.37L139.46 20.37L138.80 22ZM141.24 15.93L140.16 18.61L142.32 18.61L141.24 15.93ZM152.88 22L149.29 13.60L151.86 13.60L154.14 19.07L156.47 13.60L158.82 13.60L155.22 22L152.88 22ZM164.39 22L161.96 22L165.67 13.60L168.02 13.60L171.73 22L169.26 22L168.60 20.37L165.05 20.37L164.39 22ZM166.83 15.93L165.74 18.61L167.91 18.61L166.83 15.93ZM175.30 21.24L175.30 21.24L176.08 19.49Q176.64 19.86 177.39 20.09Q178.13 20.32 178.85 20.32L178.85 20.32Q180.22 20.32 180.22 19.64L180.22 19.64Q180.22 19.28 179.83 19.11Q179.44 18.93 178.58 18.74L178.58 18.74Q177.63 18.53 176.99 18.30Q176.35 18.06 175.90 17.55Q175.45 17.03 175.45 16.16L175.45 16.16Q175.45 15.39 175.87 14.77Q176.28 14.15 177.12 13.79Q177.95 13.43 179.16 13.43L179.16 13.43Q179.99 13.43 180.79 13.62Q181.60 13.80 182.21 14.17L182.21 14.17L181.48 15.93Q180.28 15.28 179.15 15.28L179.15 15.28Q178.44 15.28 178.12 15.49Q177.80 15.70 177.80 16.04L177.80 16.04Q177.80 16.37 178.18 16.54Q178.56 16.71 179.41 16.89L179.41 16.89Q180.37 17.10 181.00 17.33Q181.63 17.56 182.10 18.07Q182.56 18.58 182.56 19.46L182.56 19.46Q182.56 20.21 182.14 20.83Q181.72 21.44 180.88 21.80Q180.04 22.17 178.84 22.17L178.84 22.17Q177.82 22.17 176.86 21.92Q175.90 21.67 175.30 21.24ZM186.71 17.80L186.71 17.80Q186.71 16.54 187.31 15.54Q187.90 14.55 188.96 13.99Q190.01 13.43 191.33 13.43L191.33 13.43Q192.48 13.43 193.40 13.84Q194.33 14.25 194.94 15.02L194.94 15.02L193.43 16.39Q192.61 15.40 191.45 15.40L191.45 15.40Q190.76 15.40 190.23 15.70Q189.70 16 189.40 16.54Q189.10 17.09 189.10 17.80L189.10 17.80Q189.10 18.51 189.40 19.05Q189.70 19.60 190.23 19.90Q190.76 20.20 191.45 20.20L191.45 20.20Q192.61 20.20 193.43 19.22L193.43 19.22L194.94 20.58Q194.33 21.35 193.41 21.76Q192.48 22.17 191.33 22.17L191.33 22.17Q190.01 22.17 188.96 21.61Q187.90 21.05 187.31 20.05Q186.71 19.06 186.71 17.80ZM201.85 22L199.48 22L199.48 13.60L203.32 13.60Q204.46 13.60 205.30 13.98Q206.14 14.35 206.59 15.06Q207.05 15.76 207.05 16.71L207.05 16.71Q207.05 17.62 206.62 18.30Q206.20 18.98 205.41 19.36L205.41 19.36L207.22 22L204.67 22L203.15 19.77L201.85 19.77L201.85 22ZM201.85 15.47L201.85 17.93L203.17 17.93Q203.91 17.93 204.28 17.61Q204.65 17.29 204.65 16.71L204.65 16.71Q204.65 16.12 204.28 15.79Q203.91 15.47 203.17 15.47L203.17 15.47L201.85 15.47ZM214.22 22L211.84 22L211.84 13.60L214.22 13.60L214.22 22ZM221.77 22L219.39 22L219.39 13.60L223.24 13.60Q224.37 13.60 225.21 13.98Q226.05 14.35 226.51 15.06Q226.97 15.76 226.97 16.71L226.97 16.71Q226.97 17.66 226.51 18.35Q226.05 19.05 225.21 19.42Q224.37 19.80 223.24 19.80L223.24 19.80L221.77 19.80L221.77 22ZM221.77 15.47L221.77 17.93L223.09 17.93Q223.82 17.93 224.19 17.61Q224.57 17.29 224.57 16.71L224.57 16.71Q224.57 16.12 224.19 15.80Q223.82 15.47 223.09 15.47L223.09 15.47L221.77 15.47ZM233.51 15.48L230.93 15.48L230.93 13.60L238.45 13.60L238.45 15.48L235.89 15.48L235.89 22L233.51 22L233.51 15.48Z" fill="#000000" x="126.03"/></svg>