<svg xmlns="http://www.w3.org/2000/svg" width="284.55" height="35" viewBox="0 0 284.55 35"><rect class="svg__rect" x="0" y="0" width="175.68" height="35" fill="#AF3AC1"/><rect class="svg__rect" x="173.68" y="0" width="110.87" height="35" fill="#771F7C"/><path class="svg__text" d="M13.95 18.00L13.95 18.00L13.95 17.52Q13.95 16.28 14.39 15.32Q14.83 14.37 15.64 13.86Q16.44 13.35 17.49 13.35Q18.53 13.35 19.34 13.85Q20.14 14.35 20.58 15.29Q21.02 16.23 21.03 17.48L21.03 17.48L21.03 17.96Q21.03 19.21 20.59 20.16Q20.16 21.10 19.35 21.61Q18.55 22.12 17.50 22.12L17.50 22.12Q16.46 22.12 15.65 21.61Q14.84 21.10 14.40 20.17Q13.95 19.23 13.95 18.00ZM15.43 17.46L15.43 17.96Q15.43 19.36 15.98 20.13Q16.53 20.90 17.50 20.90L17.50 20.90Q18.48 20.90 19.01 20.15Q19.54 19.40 19.54 17.96L19.54 17.96L19.54 17.51Q19.54 16.09 19.01 15.34Q18.47 14.58 17.49 14.58L17.49 14.58Q16.53 14.58 15.98 15.33Q15.44 16.09 15.43 17.46L15.43 17.46ZM26.97 22L25.49 22L25.49 13.47L28.75 13.47Q30.18 13.47 31.02 14.21Q31.87 14.96 31.87 16.18L31.87 16.18Q31.87 17.44 31.04 18.13Q30.22 18.83 28.74 18.83L28.74 18.83L26.97 18.83L26.97 22ZM26.97 14.66L26.97 17.64L28.75 17.64Q29.55 17.64 29.96 17.27Q30.38 16.90 30.38 16.19L30.38 16.19Q30.38 15.50 29.96 15.09Q29.53 14.68 28.80 14.66L28.80 14.66L26.97 14.66ZM41.73 22L36.15 22L36.15 13.47L41.69 13.47L41.69 14.66L37.63 14.66L37.63 17.02L41.14 17.02L41.14 18.19L37.63 18.19L37.63 20.82L41.73 20.82L41.73 22ZM47.40 22L45.92 22L45.92 13.47L47.40 13.47L51.22 19.54L51.22 13.47L52.69 13.47L52.69 22L51.21 22L47.40 15.95L47.40 22ZM57.16 18.19L57.16 18.19L57.16 17.39Q57.16 16.19 57.59 15.27Q58.02 14.35 58.82 13.85Q59.62 13.35 60.66 13.35L60.66 13.35Q62.08 13.35 62.94 14.12Q63.80 14.89 63.94 16.29L63.94 16.29L62.46 16.29Q62.36 15.37 61.93 14.96Q61.50 14.55 60.66 14.55L60.66 14.55Q59.70 14.55 59.18 15.26Q58.66 15.96 58.65 17.33L58.65 17.33L58.65 18.09Q58.65 19.47 59.14 20.20Q59.64 20.92 60.59 20.92L60.59 20.92Q61.47 20.92 61.91 20.53Q62.35 20.14 62.46 19.22L62.46 19.22L63.94 19.22Q63.81 20.59 62.93 21.35Q62.05 22.12 60.59 22.12L60.59 22.12Q59.57 22.12 58.80 21.63Q58.02 21.15 57.60 20.26Q57.18 19.37 57.16 18.19ZM73.61 22L68.25 22L68.25 13.47L69.73 13.47L69.73 20.82L73.61 20.82L73.61 22ZM78.51 22L76.97 22L80.19 13.47L81.52 13.47L84.75 22L83.21 22L82.51 20.01L79.20 20.01L78.51 22ZM80.86 15.28L79.62 18.82L82.09 18.82L80.86 15.28ZM88.27 19.42L88.27 19.42L89.76 19.42Q89.76 20.15 90.24 20.55Q90.72 20.95 91.61 20.95L91.61 20.95Q92.39 20.95 92.78 20.63Q93.17 20.32 93.17 19.80L93.17 19.80Q93.17 19.24 92.77 18.94Q92.38 18.63 91.34 18.32Q90.31 18.01 89.70 17.63L89.70 17.63Q88.54 16.90 88.54 15.72L88.54 15.72Q88.54 14.69 89.38 14.02Q90.22 13.35 91.56 13.35L91.56 13.35Q92.45 13.35 93.15 13.68Q93.85 14.01 94.24 14.61Q94.64 15.22 94.64 15.96L94.64 15.96L93.17 15.96Q93.17 15.29 92.75 14.91Q92.33 14.54 91.55 14.54L91.55 14.54Q90.82 14.54 90.42 14.85Q90.02 15.16 90.02 15.71L90.02 15.71Q90.02 16.18 90.45 16.50Q90.89 16.81 91.88 17.10Q92.88 17.40 93.48 17.78Q94.09 18.16 94.37 18.65Q94.65 19.13 94.65 19.79L94.65 19.79Q94.65 20.86 93.83 21.49Q93.01 22.12 91.61 22.12L91.61 22.12Q90.69 22.12 89.91 21.77Q89.14 21.43 88.70 20.83Q88.27 20.22 88.27 19.42ZM98.50 19.42L98.50 19.42L99.99 19.42Q99.99 20.15 100.47 20.55Q100.95 20.95 101.84 20.95L101.84 20.95Q102.62 20.95 103.01 20.63Q103.40 20.32 103.40 19.80L103.40 19.80Q103.40 19.24 103.00 18.94Q102.61 18.63 101.57 18.32Q100.54 18.01 99.93 17.63L99.93 17.63Q98.77 16.90 98.77 15.72L98.77 15.72Q98.77 14.69 99.61 14.02Q100.45 13.35 101.79 13.35L101.79 13.35Q102.68 13.35 103.38 13.68Q104.08 14.01 104.47 14.61Q104.87 15.22 104.87 15.96L104.87 15.96L103.40 15.96Q103.40 15.29 102.98 14.91Q102.56 14.54 101.78 14.54L101.78 14.54Q101.05 14.54 100.65 14.85Q100.25 15.16 100.25 15.71L100.25 15.71Q100.25 16.18 100.68 16.50Q101.12 16.81 102.11 17.10Q103.11 17.40 103.71 17.78Q104.32 18.16 104.60 18.65Q104.88 19.13 104.88 19.79L104.88 19.79Q104.88 20.86 104.06 21.49Q103.24 22.12 101.84 22.12L101.84 22.12Q100.92 22.12 100.14 21.77Q99.37 21.43 98.93 20.83Q98.50 20.22 98.50 19.42ZM110.65 22L109.17 22L109.17 13.47L112.17 13.47Q113.64 13.47 114.45 14.13Q115.25 14.79 115.25 16.05L115.25 16.05Q115.25 16.90 114.84 17.48Q114.42 18.06 113.69 18.37L113.69 18.37L115.60 21.92L115.60 22L114.01 22L112.30 18.71L110.65 18.71L110.65 22ZM110.65 14.66L110.65 17.52L112.17 17.52Q112.92 17.52 113.35 17.15Q113.77 16.77 113.77 16.11L113.77 16.11Q113.77 15.43 113.38 15.05Q112.99 14.68 112.22 14.66L112.22 14.66L110.65 14.66ZM119.38 18.00L119.38 18.00L119.38 17.52Q119.38 16.28 119.82 15.32Q120.26 14.37 121.07 13.86Q121.87 13.35 122.91 13.35Q123.96 13.35 124.76 13.85Q125.57 14.35 126.01 15.29Q126.45 16.23 126.45 17.48L126.45 17.48L126.45 17.96Q126.45 19.21 126.02 20.16Q125.59 21.10 124.78 21.61Q123.97 22.12 122.93 22.12L122.93 22.12Q121.89 22.12 121.08 21.61Q120.27 21.10 119.82 20.17Q119.38 19.23 119.38 18.00ZM120.86 17.46L120.86 17.96Q120.86 19.36 121.41 20.13Q121.95 20.90 122.93 20.90L122.93 20.90Q123.91 20.90 124.44 20.15Q124.97 19.40 124.97 17.96L124.97 17.96L124.97 17.51Q124.97 16.09 124.43 15.34Q123.90 14.58 122.91 14.58L122.91 14.58Q121.95 14.58 121.41 15.33Q120.87 16.09 120.86 17.46L120.86 17.46ZM130.65 18.00L130.65 18.00L130.65 17.52Q130.65 16.28 131.09 15.32Q131.53 14.37 132.34 13.86Q133.14 13.35 134.19 13.35Q135.23 13.35 136.04 13.85Q136.84 14.35 137.28 15.29Q137.72 16.23 137.73 17.48L137.73 17.48L137.73 17.96Q137.73 19.21 137.29 20.16Q136.86 21.10 136.05 21.61Q135.25 22.12 134.20 22.12L134.20 22.12Q133.16 22.12 132.35 21.61Q131.54 21.10 131.10 20.17Q130.65 19.23 130.65 18.00ZM132.13 17.46L132.13 17.96Q132.13 19.36 132.68 20.13Q133.23 20.90 134.20 20.90L134.20 20.90Q135.18 20.90 135.71 20.15Q136.24 19.40 136.24 17.96L136.24 17.96L136.24 17.51Q136.24 16.09 135.71 15.34Q135.17 14.58 134.19 14.58L134.19 14.58Q133.23 14.58 132.68 15.33Q132.14 16.09 132.13 17.46L132.13 17.46ZM143.67 22L142.19 22L142.19 13.47L144.11 13.47L146.57 20.01L149.03 13.47L150.95 13.47L150.95 22L149.47 22L149.47 19.19L149.62 15.43L147.10 22L146.04 22L143.52 15.43L143.67 19.19L143.67 22ZM155.25 19.42L155.25 19.42L156.73 19.42Q156.73 20.15 157.22 20.55Q157.70 20.95 158.59 20.95L158.59 20.95Q159.37 20.95 159.76 20.63Q160.14 20.32 160.14 19.80L160.14 19.80Q160.14 19.24 159.75 18.94Q159.35 18.63 158.32 18.32Q157.29 18.01 156.68 17.63L156.68 17.63Q155.52 16.90 155.52 15.72L155.52 15.72Q155.52 14.69 156.36 14.02Q157.20 13.35 158.54 13.35L158.54 13.35Q159.43 13.35 160.13 13.68Q160.82 14.01 161.22 14.61Q161.62 15.22 161.62 15.96L161.62 15.96L160.14 15.96Q160.14 15.29 159.73 14.91Q159.31 14.54 158.53 14.54L158.53 14.54Q157.80 14.54 157.40 14.85Q157.00 15.16 157.00 15.71L157.00 15.71Q157.00 16.18 157.43 16.50Q157.87 16.81 158.86 17.10Q159.86 17.40 160.46 17.78Q161.06 18.16 161.35 18.65Q161.63 19.13 161.63 19.79L161.63 19.79Q161.63 20.86 160.81 21.49Q159.99 22.12 158.59 22.12L158.59 22.12Q157.67 22.12 156.89 21.77Q156.11 21.43 155.68 20.83Q155.25 20.22 155.25 19.42Z" fill="#FFFFFF"/><path class="svg__text" d="M190.25 22L187.87 22L187.87 13.60L191.71 13.60Q192.85 13.60 193.69 13.98Q194.53 14.35 194.99 15.06Q195.44 15.76 195.44 16.71L195.44 16.71Q195.44 17.66 194.99 18.35Q194.53 19.05 193.69 19.42Q192.85 19.80 191.71 19.80L191.71 19.80L190.25 19.80L190.25 22ZM190.25 15.47L190.25 17.93L191.57 17.93Q192.30 17.93 192.67 17.61Q193.04 17.29 193.04 16.71L193.04 16.71Q193.04 16.12 192.67 15.80Q192.30 15.47 191.57 15.47L191.57 15.47L190.25 15.47ZM202.57 22L200.20 22L200.20 13.60L204.04 13.60Q205.18 13.60 206.02 13.98Q206.86 14.35 207.32 15.06Q207.77 15.76 207.77 16.71L207.77 16.71Q207.77 17.62 207.34 18.30Q206.92 18.98 206.13 19.36L206.13 19.36L207.94 22L205.39 22L203.87 19.77L202.57 19.77L202.57 22ZM202.57 15.47L202.57 17.93L203.89 17.93Q204.63 17.93 205.00 17.61Q205.37 17.29 205.37 16.71L205.37 16.71Q205.37 16.12 205.00 15.79Q204.63 15.47 203.89 15.47L203.89 15.47L202.57 15.47ZM212.13 17.80L212.13 17.80Q212.13 16.55 212.74 15.55Q213.34 14.56 214.40 14.00Q215.47 13.43 216.80 13.43L216.80 13.43Q218.13 13.43 219.19 14.00Q220.25 14.56 220.86 15.55Q221.47 16.55 221.47 17.80L221.47 17.80Q221.47 19.05 220.86 20.04Q220.25 21.04 219.19 21.60Q218.13 22.17 216.80 22.17L216.80 22.17Q215.47 22.17 214.40 21.60Q213.34 21.04 212.74 20.04Q212.13 19.05 212.13 17.80ZM214.53 17.80L214.53 17.80Q214.53 18.51 214.83 19.05Q215.13 19.60 215.65 19.90Q216.16 20.20 216.80 20.20L216.80 20.20Q217.43 20.20 217.95 19.90Q218.47 19.60 218.76 19.05Q219.06 18.51 219.06 17.80L219.06 17.80Q219.06 17.09 218.76 16.54Q218.47 16 217.95 15.70Q217.43 15.40 216.80 15.40L216.80 15.40Q216.16 15.40 215.64 15.70Q215.13 16 214.83 16.54Q214.53 17.09 214.53 17.80ZM225.12 20.93L225.12 20.93L226.41 19.40Q227.08 20.27 227.85 20.27L227.85 20.27Q227.86 20.27 227.86 20.27L227.86 20.27Q228.38 20.27 228.65 19.96Q228.92 19.65 228.92 19.05L228.92 19.05L228.92 15.44L226.02 15.44L226.02 13.60L231.27 13.60L231.27 18.91Q231.27 20.54 230.45 21.36Q229.63 22.17 228.03 22.17L228.03 22.17Q227.11 22.17 226.35 21.85Q225.60 21.53 225.12 20.93ZM243.10 22L236.36 22L236.36 13.60L242.95 13.60L242.95 15.44L238.72 15.44L238.72 16.85L242.45 16.85L242.45 18.63L238.72 18.63L238.72 20.17L243.10 20.17L243.10 22ZM249.70 15.48L247.12 15.48L247.12 13.60L254.64 13.60L254.64 15.48L252.07 15.48L252.07 22L249.70 22L249.70 15.48ZM265.56 18.03L265.56 18.03Q265.56 16.59 266.11 15.55Q266.67 14.51 267.68 13.97Q268.69 13.43 270.02 13.43L270.02 13.43Q270.74 13.43 271.39 13.59Q272.04 13.74 272.49 14.04L272.49 14.04L271.63 15.75Q271.02 15.31 270.08 15.31L270.08 15.31Q269.17 15.31 268.60 15.82Q268.04 16.32 267.95 17.27L267.95 17.27Q268.67 16.65 269.85 16.65L269.85 16.65Q270.64 16.65 271.30 16.98Q271.96 17.31 272.35 17.91Q272.74 18.52 272.74 19.30L272.74 19.30Q272.74 20.15 272.30 20.80Q271.87 21.46 271.12 21.82Q270.37 22.17 269.44 22.17L269.44 22.17Q267.64 22.17 266.60 21.10Q265.56 20.03 265.56 18.03ZM268.12 19.42L268.12 19.42Q268.12 19.89 268.44 20.18Q268.76 20.48 269.30 20.48L269.30 20.48Q269.81 20.48 270.12 20.19Q270.44 19.90 270.44 19.41L270.44 19.41Q270.44 18.93 270.12 18.64Q269.81 18.35 269.29 18.35L269.29 18.35Q268.77 18.35 268.45 18.65Q268.12 18.94 268.12 19.42Z" fill="#FFFFFF" x="186.68"/></svg>