<svg xmlns="http://www.w3.org/2000/svg" width="147.03" height="35" viewBox="0 0 147.03 35"><rect class="svg__rect" x="0" y="0" width="54.760000000000005" height="35" fill="#000000"/><rect class="svg__rect" x="52.760000000000005" y="0" width="94.27" height="35" fill="#FFFFFF"/><path class="svg__text" d="M14.08 19.16L14.08 19.16L14.08 13.47L15.56 13.47L15.56 19.18Q15.56 20.03 15.99 20.48Q16.43 20.93 17.27 20.93L17.27 20.93Q18.98 20.93 18.98 19.13L18.98 19.13L18.98 13.47L20.46 13.47L20.46 19.17Q20.46 20.53 19.59 21.32Q18.72 22.12 17.27 22.12L17.27 22.12Q15.81 22.12 14.94 21.33Q14.08 20.55 14.08 19.16ZM24.59 19.42L24.59 19.42L26.08 19.42Q26.08 20.15 26.56 20.55Q27.04 20.95 27.93 20.95L27.93 20.95Q28.71 20.95 29.10 20.63Q29.49 20.32 29.49 19.80L29.49 19.80Q29.49 19.24 29.09 18.94Q28.70 18.63 27.66 18.32Q26.63 18.01 26.02 17.63L26.02 17.63Q24.86 16.90 24.86 15.72L24.86 15.72Q24.86 14.69 25.70 14.02Q26.54 13.35 27.88 13.35L27.88 13.35Q28.77 13.35 29.47 13.68Q30.17 14.01 30.56 14.61Q30.96 15.22 30.96 15.96L30.96 15.96L29.49 15.96Q29.49 15.29 29.07 14.91Q28.65 14.54 27.87 14.54L27.87 14.54Q27.14 14.54 26.74 14.85Q26.34 15.16 26.34 15.71L26.34 15.71Q26.34 16.18 26.77 16.50Q27.21 16.81 28.20 17.10Q29.20 17.40 29.80 17.78Q30.41 18.16 30.69 18.65Q30.97 19.13 30.97 19.79L30.97 19.79Q30.97 20.86 30.15 21.49Q29.33 22.12 27.93 22.12L27.93 22.12Q27.01 22.12 26.23 21.77Q25.46 21.43 25.02 20.83Q24.59 20.22 24.59 19.42ZM40.84 22L35.26 22L35.26 13.47L40.80 13.47L40.80 14.66L36.74 14.66L36.74 17.02L40.24 17.02L40.24 18.19L36.74 18.19L36.74 20.82L40.84 20.82L40.84 22Z" fill="#FFFFFF"/><path class="svg__text" d="M71.49 22L66.95 22L66.95 13.60L71.25 13.60Q72.85 13.60 73.69 14.19Q74.54 14.79 74.54 15.79L74.54 15.79Q74.54 16.39 74.24 16.87Q73.94 17.34 73.40 17.62L73.40 17.62Q74.13 17.87 74.53 18.41Q74.94 18.94 74.94 19.70L74.94 19.70Q74.94 20.80 74.05 21.40Q73.16 22 71.49 22L71.49 22ZM69.30 18.58L69.30 20.28L71.30 20.28Q72.54 20.28 72.54 19.43L72.54 19.43Q72.54 18.58 71.30 18.58L71.30 18.58L69.30 18.58ZM69.30 15.31L69.30 16.94L70.93 16.94Q72.13 16.94 72.13 16.12L72.13 16.12Q72.13 15.31 70.93 15.31L70.93 15.31L69.30 15.31ZM79.23 17.80L79.23 17.80Q79.23 16.54 79.83 15.54Q80.42 14.55 81.48 13.99Q82.53 13.43 83.85 13.43L83.85 13.43Q85.00 13.43 85.92 13.84Q86.85 14.25 87.46 15.02L87.46 15.02L85.95 16.39Q85.14 15.40 83.97 15.40L83.97 15.40Q83.28 15.40 82.75 15.70Q82.22 16 81.92 16.54Q81.63 17.09 81.63 17.80L81.63 17.80Q81.63 18.51 81.92 19.05Q82.22 19.60 82.75 19.90Q83.28 20.20 83.97 20.20L83.97 20.20Q85.14 20.20 85.95 19.22L85.95 19.22L87.46 20.58Q86.85 21.35 85.93 21.76Q85.00 22.17 83.85 22.17L83.85 22.17Q82.53 22.17 81.48 21.61Q80.42 21.05 79.83 20.05Q79.23 19.06 79.23 17.80ZM94.38 22L92.00 22L92.00 13.60L95.84 13.60Q96.98 13.60 97.82 13.98Q98.66 14.35 99.12 15.06Q99.57 15.76 99.57 16.71L99.57 16.71Q99.57 17.62 99.15 18.30Q98.72 18.98 97.93 19.36L97.93 19.36L99.74 22L97.19 22L95.67 19.77L94.38 19.77L94.38 22ZM94.38 15.47L94.38 17.93L95.69 17.93Q96.43 17.93 96.80 17.61Q97.17 17.29 97.17 16.71L97.17 16.71Q97.17 16.12 96.80 15.79Q96.43 15.47 95.69 15.47L95.69 15.47L94.38 15.47ZM106.49 18.95L103.28 13.60L105.79 13.60L107.78 16.94L109.77 13.60L112.08 13.60L108.86 18.99L108.86 22L106.49 22L106.49 18.95ZM118.54 22L116.16 22L116.16 13.60L120.00 13.60Q121.14 13.60 121.98 13.98Q122.82 14.35 123.28 15.06Q123.74 15.76 123.74 16.71L123.74 16.71Q123.74 17.66 123.28 18.35Q122.82 19.05 121.98 19.42Q121.14 19.80 120.00 19.80L120.00 19.80L118.54 19.80L118.54 22ZM118.54 15.47L118.54 17.93L119.86 17.93Q120.59 17.93 120.96 17.61Q121.33 17.29 121.33 16.71L121.33 16.71Q121.33 16.12 120.96 15.80Q120.59 15.47 119.86 15.47L119.86 15.47L118.54 15.47ZM130.28 15.48L127.70 15.48L127.70 13.60L135.22 13.60L135.22 15.48L132.65 15.48L132.65 22L130.28 22L130.28 15.48Z" fill="#000000" x="65.76"/></svg>