<svg xmlns="http://www.w3.org/2000/svg" width="178.46" height="35" viewBox="0 0 178.46 35"><rect class="svg__rect" x="0" y="0" width="54.760000000000005" height="35" fill="#000000"/><rect class="svg__rect" x="52.760000000000005" y="0" width="125.7" height="35" fill="#FFFFFF"/><path class="svg__text" d="M14.08 19.16L14.08 19.16L14.08 13.47L15.56 13.47L15.56 19.18Q15.56 20.03 15.99 20.48Q16.43 20.93 17.27 20.93L17.27 20.93Q18.98 20.93 18.98 19.13L18.98 19.13L18.98 13.47L20.46 13.47L20.46 19.17Q20.46 20.53 19.59 21.32Q18.72 22.12 17.27 22.12L17.27 22.12Q15.81 22.12 14.94 21.33Q14.08 20.55 14.08 19.16ZM24.59 19.42L24.59 19.42L26.08 19.42Q26.08 20.15 26.56 20.55Q27.04 20.95 27.93 20.95L27.93 20.95Q28.71 20.95 29.10 20.63Q29.49 20.32 29.49 19.80L29.49 19.80Q29.49 19.24 29.09 18.94Q28.70 18.63 27.66 18.32Q26.63 18.01 26.02 17.63L26.02 17.63Q24.86 16.90 24.86 15.72L24.86 15.72Q24.86 14.69 25.70 14.02Q26.54 13.35 27.88 13.35L27.88 13.35Q28.77 13.35 29.47 13.68Q30.17 14.01 30.56 14.61Q30.96 15.22 30.96 15.96L30.96 15.96L29.49 15.96Q29.49 15.29 29.07 14.91Q28.65 14.54 27.87 14.54L27.87 14.54Q27.14 14.54 26.74 14.85Q26.34 15.16 26.34 15.71L26.34 15.71Q26.34 16.18 26.77 16.50Q27.21 16.81 28.20 17.10Q29.20 17.40 29.80 17.78Q30.41 18.16 30.69 18.65Q30.97 19.13 30.97 19.79L30.97 19.79Q30.97 20.86 30.15 21.49Q29.33 22.12 27.93 22.12L27.93 22.12Q27.01 22.12 26.23 21.77Q25.46 21.43 25.02 20.83Q24.59 20.22 24.59 19.42ZM40.84 22L35.26 22L35.26 13.47L40.80 13.47L40.80 14.66L36.74 14.66L36.74 17.02L40.24 17.02L40.24 18.19L36.74 18.19L36.74 20.82L40.84 20.82L40.84 22Z" fill="#FFFFFF"/><path class="svg__text" d="M69.15 22L66.95 22L66.95 13.60L68.90 13.60L71.86 18.45L74.74 13.60L76.69 13.60L76.72 22L74.54 22L74.51 17.55L72.35 21.17L71.30 21.17L69.15 17.67L69.15 22ZM81.45 17.80L81.45 17.80Q81.45 16.55 82.05 15.55Q82.66 14.56 83.72 14.00Q84.78 13.43 86.11 13.43L86.11 13.43Q87.44 13.43 88.51 14.00Q89.57 14.56 90.18 15.55Q90.78 16.55 90.78 17.80L90.78 17.80Q90.78 19.05 90.18 20.04Q89.57 21.04 88.51 21.60Q87.45 22.17 86.11 22.17L86.11 22.17Q84.78 22.17 83.72 21.60Q82.66 21.04 82.05 20.04Q81.45 19.05 81.45 17.80ZM83.85 17.80L83.85 17.80Q83.85 18.51 84.15 19.05Q84.45 19.60 84.97 19.90Q85.48 20.20 86.11 20.20L86.11 20.20Q86.75 20.20 87.27 19.90Q87.78 19.60 88.08 19.05Q88.38 18.51 88.38 17.80L88.38 17.80Q88.38 17.09 88.08 16.54Q87.78 16 87.27 15.70Q86.75 15.40 86.11 15.40L86.11 15.40Q85.48 15.40 84.96 15.70Q84.45 16 84.15 16.54Q83.85 17.09 83.85 17.80ZM97.84 22L95.51 22L95.51 13.60L97.47 13.60L101.18 18.07L101.18 13.60L103.50 13.60L103.50 22L101.55 22L97.84 17.52L97.84 22ZM108.24 17.80L108.24 17.80Q108.24 16.54 108.84 15.54Q109.43 14.55 110.50 13.99Q111.57 13.43 112.91 13.43L112.91 13.43Q114.09 13.43 115.03 13.83Q115.97 14.22 116.59 14.97L116.59 14.97L115.08 16.33Q114.23 15.40 113.06 15.40L113.06 15.40Q113.04 15.40 113.04 15.40L113.04 15.40Q111.96 15.40 111.30 16.06Q110.64 16.71 110.64 17.80L110.64 17.80Q110.64 18.50 110.94 19.04Q111.24 19.59 111.78 19.89Q112.32 20.20 113.01 20.20L113.01 20.20Q113.70 20.20 114.30 19.93L114.30 19.93L114.30 17.62L116.40 17.62L116.40 21.10Q115.67 21.61 114.74 21.89Q113.81 22.17 112.87 22.17L112.87 22.17Q111.55 22.17 110.49 21.61Q109.43 21.05 108.84 20.05Q108.24 19.06 108.24 17.80ZM120.96 17.80L120.96 17.80Q120.96 16.55 121.56 15.55Q122.17 14.56 123.23 14.00Q124.29 13.43 125.62 13.43L125.62 13.43Q126.95 13.43 128.02 14.00Q129.08 14.56 129.69 15.55Q130.29 16.55 130.29 17.80L130.29 17.80Q130.29 19.05 129.69 20.04Q129.08 21.04 128.02 21.60Q126.96 22.17 125.62 22.17L125.62 22.17Q124.29 22.17 123.23 21.60Q122.17 21.04 121.56 20.04Q120.96 19.05 120.96 17.80ZM123.36 17.80L123.36 17.80Q123.36 18.51 123.66 19.05Q123.96 19.60 124.48 19.90Q124.99 20.20 125.62 20.20L125.62 20.20Q126.26 20.20 126.78 19.90Q127.29 19.60 127.59 19.05Q127.89 18.51 127.89 17.80L127.89 17.80Q127.89 17.09 127.59 16.54Q127.29 16 126.78 15.70Q126.26 15.40 125.62 15.40L125.62 15.40Q124.98 15.40 124.47 15.70Q123.96 16 123.66 16.54Q123.36 17.09 123.36 17.80ZM134.59 17.80L134.59 17.80Q134.59 16.55 135.20 15.55Q135.80 14.56 136.86 14.00Q137.93 13.43 139.26 13.43L139.26 13.43Q140.59 13.43 141.65 14.00Q142.72 14.56 143.32 15.55Q143.93 16.55 143.93 17.80L143.93 17.80Q143.93 19.05 143.32 20.04Q142.72 21.04 141.65 21.60Q140.59 22.17 139.26 22.17L139.26 22.17Q137.93 22.17 136.86 21.60Q135.80 21.04 135.20 20.04Q134.59 19.05 134.59 17.80ZM136.99 17.80L136.99 17.80Q136.99 18.51 137.29 19.05Q137.59 19.60 138.11 19.90Q138.63 20.20 139.26 20.20L139.26 20.20Q139.90 20.20 140.41 19.90Q140.93 19.60 141.23 19.05Q141.53 18.51 141.53 17.80L141.53 17.80Q141.53 17.09 141.23 16.54Q140.93 16 140.41 15.70Q139.90 15.40 139.26 15.40L139.26 15.40Q138.62 15.40 138.11 15.70Q137.59 16 137.29 16.54Q136.99 17.09 136.99 17.80ZM148.07 21.24L148.07 21.24L148.85 19.49Q149.41 19.86 150.16 20.09Q150.90 20.32 151.62 20.32L151.62 20.32Q152.99 20.32 152.99 19.64L152.99 19.64Q152.99 19.28 152.60 19.11Q152.21 18.93 151.35 18.74L151.35 18.74Q150.40 18.53 149.76 18.30Q149.13 18.06 148.67 17.55Q148.22 17.03 148.22 16.16L148.22 16.16Q148.22 15.39 148.64 14.77Q149.06 14.15 149.89 13.79Q150.73 13.43 151.93 13.43L151.93 13.43Q152.76 13.43 153.56 13.62Q154.37 13.80 154.98 14.17L154.98 14.17L154.25 15.93Q153.05 15.28 151.92 15.28L151.92 15.28Q151.21 15.28 150.89 15.49Q150.57 15.70 150.57 16.04L150.57 16.04Q150.57 16.37 150.95 16.54Q151.33 16.71 152.18 16.89L152.18 16.89Q153.15 17.10 153.78 17.33Q154.40 17.56 154.87 18.07Q155.33 18.58 155.33 19.46L155.33 19.46Q155.33 20.21 154.91 20.83Q154.49 21.44 153.65 21.80Q152.81 22.17 151.61 22.17L151.61 22.17Q150.59 22.17 149.63 21.92Q148.67 21.67 148.07 21.24ZM166.65 22L159.91 22L159.91 13.60L166.50 13.60L166.50 15.44L162.26 15.44L162.26 16.85L165.99 16.85L165.99 18.63L162.26 18.63L162.26 20.17L166.65 20.17L166.65 22Z" fill="#000000" x="65.76"/></svg>