<svg xmlns="http://www.w3.org/2000/svg" width="185.08999999999997" height="35" viewBox="0 0 185.08999999999997 35"><rect class="svg__rect" x="0" y="0" width="54.760000000000005" height="35" fill="#000000"/><rect class="svg__rect" x="52.760000000000005" y="0" width="132.32999999999998" height="35" fill="#FFFFFF"/><path class="svg__text" d="M14.08 19.16L14.08 19.16L14.08 13.47L15.56 13.47L15.56 19.18Q15.56 20.03 15.99 20.48Q16.43 20.93 17.27 20.93L17.27 20.93Q18.98 20.93 18.98 19.13L18.98 19.13L18.98 13.47L20.46 13.47L20.46 19.17Q20.46 20.53 19.59 21.32Q18.72 22.12 17.27 22.12L17.27 22.12Q15.81 22.12 14.94 21.33Q14.08 20.55 14.08 19.16ZM24.59 19.42L24.59 19.42L26.08 19.42Q26.08 20.15 26.56 20.55Q27.04 20.95 27.93 20.95L27.93 20.95Q28.71 20.95 29.10 20.63Q29.49 20.32 29.49 19.80L29.49 19.80Q29.49 19.24 29.09 18.94Q28.70 18.63 27.66 18.32Q26.63 18.01 26.02 17.63L26.02 17.63Q24.86 16.90 24.86 15.72L24.86 15.72Q24.86 14.69 25.70 14.02Q26.54 13.35 27.88 13.35L27.88 13.35Q28.77 13.35 29.47 13.68Q30.17 14.01 30.56 14.61Q30.96 15.22 30.96 15.96L30.96 15.96L29.49 15.96Q29.49 15.29 29.07 14.91Q28.65 14.54 27.87 14.54L27.87 14.54Q27.14 14.54 26.74 14.85Q26.34 15.16 26.34 15.71L26.34 15.71Q26.34 16.18 26.77 16.50Q27.21 16.81 28.20 17.10Q29.20 17.40 29.80 17.78Q30.41 18.16 30.69 18.65Q30.97 19.13 30.97 19.79L30.97 19.79Q30.97 20.86 30.15 21.49Q29.33 22.12 27.93 22.12L27.93 22.12Q27.01 22.12 26.23 21.77Q25.46 21.43 25.02 20.83Q24.59 20.22 24.59 19.42ZM40.84 22L35.26 22L35.26 13.47L40.80 13.47L40.80 14.66L36.74 14.66L36.74 17.02L40.24 17.02L40.24 18.19L36.74 18.19L36.74 20.82L40.84 20.82L40.84 22Z" fill="#FFFFFF"/><path class="svg__text" d="M73.69 22L66.95 22L66.95 13.60L73.54 13.60L73.54 15.44L69.30 15.44L69.30 16.85L73.04 16.85L73.04 18.63L69.30 18.63L69.30 20.17L73.69 20.17L73.69 22ZM80.35 22L77.64 22L80.69 17.75L77.76 13.60L80.44 13.60L82.12 16.02L83.78 13.60L86.35 13.60L83.42 17.66L86.54 22L83.81 22L82.07 19.40L80.35 22ZM93.20 22L90.82 22L90.82 13.60L94.67 13.60Q95.81 13.60 96.65 13.98Q97.49 14.35 97.94 15.06Q98.40 15.76 98.40 16.71L98.40 16.71Q98.40 17.66 97.94 18.35Q97.49 19.05 96.65 19.42Q95.81 19.80 94.67 19.80L94.67 19.80L93.20 19.80L93.20 22ZM93.20 15.47L93.20 17.93L94.52 17.93Q95.25 17.93 95.63 17.61Q96.00 17.29 96.00 16.71L96.00 16.71Q96.00 16.12 95.63 15.80Q95.25 15.47 94.52 15.47L94.52 15.47L93.20 15.47ZM105.53 22L103.15 22L103.15 13.60L107.00 13.60Q108.14 13.60 108.98 13.98Q109.82 14.35 110.27 15.06Q110.73 15.76 110.73 16.71L110.73 16.71Q110.73 17.62 110.30 18.30Q109.87 18.98 109.08 19.36L109.08 19.36L110.89 22L108.35 22L106.83 19.77L105.53 19.77L105.53 22ZM105.53 15.47L105.53 17.93L106.85 17.93Q107.58 17.93 107.95 17.61Q108.33 17.29 108.33 16.71L108.33 16.71Q108.33 16.12 107.95 15.79Q107.58 15.47 106.85 15.47L106.85 15.47L105.53 15.47ZM122.26 22L115.52 22L115.52 13.60L122.11 13.60L122.11 15.44L117.87 15.44L117.87 16.85L121.60 16.85L121.60 18.63L117.87 18.63L117.87 20.17L122.26 20.17L122.26 22ZM126.48 21.24L126.48 21.24L127.26 19.49Q127.82 19.86 128.57 20.09Q129.31 20.32 130.03 20.32L130.03 20.32Q131.40 20.32 131.40 19.64L131.40 19.64Q131.40 19.28 131.01 19.11Q130.62 18.93 129.75 18.74L129.75 18.74Q128.81 18.53 128.17 18.30Q127.53 18.06 127.08 17.55Q126.63 17.03 126.63 16.16L126.63 16.16Q126.63 15.39 127.04 14.77Q127.46 14.15 128.30 13.79Q129.13 13.43 130.34 13.43L130.34 13.43Q131.17 13.43 131.97 13.62Q132.78 13.80 133.39 14.17L133.39 14.17L132.66 15.93Q131.46 15.28 130.33 15.28L130.33 15.28Q129.62 15.28 129.30 15.49Q128.98 15.70 128.98 16.04L128.98 16.04Q128.98 16.37 129.36 16.54Q129.74 16.71 130.59 16.89L130.59 16.89Q131.55 17.10 132.18 17.33Q132.81 17.56 133.28 18.07Q133.74 18.58 133.74 19.46L133.74 19.46Q133.74 20.21 133.32 20.83Q132.90 21.44 132.06 21.80Q131.22 22.17 130.02 22.17L130.02 22.17Q129.00 22.17 128.04 21.92Q127.08 21.67 126.48 21.24ZM137.73 21.24L137.73 21.24L138.51 19.49Q139.07 19.86 139.82 20.09Q140.56 20.32 141.28 20.32L141.28 20.32Q142.65 20.32 142.65 19.64L142.65 19.64Q142.65 19.28 142.26 19.11Q141.87 18.93 141.00 18.74L141.00 18.74Q140.06 18.53 139.42 18.30Q138.78 18.06 138.33 17.55Q137.88 17.03 137.88 16.16L137.88 16.16Q137.88 15.39 138.29 14.77Q138.71 14.15 139.55 13.79Q140.38 13.43 141.59 13.43L141.59 13.43Q142.42 13.43 143.22 13.62Q144.03 13.80 144.64 14.17L144.64 14.17L143.91 15.93Q142.71 15.28 141.58 15.28L141.58 15.28Q140.87 15.28 140.55 15.49Q140.23 15.70 140.23 16.04L140.23 16.04Q140.23 16.37 140.61 16.54Q140.99 16.71 141.84 16.89L141.84 16.89Q142.80 17.10 143.43 17.33Q144.06 17.56 144.53 18.07Q144.99 18.58 144.99 19.46L144.99 19.46Q144.99 20.21 144.57 20.83Q144.15 21.44 143.31 21.80Q142.47 22.17 141.27 22.17L141.27 22.17Q140.25 22.17 139.29 21.92Q138.33 21.67 137.73 21.24ZM149.05 20.75L149.05 20.75Q149.05 20.15 149.44 19.78Q149.83 19.41 150.42 19.41L150.42 19.41Q151.02 19.41 151.40 19.78Q151.79 20.15 151.79 20.75L151.79 20.75Q151.79 21.34 151.40 21.72Q151.01 22.11 150.42 22.11L150.42 22.11Q149.84 22.11 149.44 21.72Q149.05 21.34 149.05 20.75ZM155.37 20.93L155.37 20.93L156.66 19.40Q157.33 20.27 158.10 20.27L158.10 20.27Q158.11 20.27 158.11 20.27L158.11 20.27Q158.63 20.27 158.90 19.96Q159.17 19.65 159.17 19.05L159.17 19.05L159.17 15.44L156.27 15.44L156.27 13.60L161.52 13.60L161.52 18.91Q161.52 20.54 160.70 21.36Q159.88 22.17 158.28 22.17L158.28 22.17Q157.36 22.17 156.60 21.85Q155.85 21.53 155.37 20.93ZM166.02 21.24L166.02 21.24L166.80 19.49Q167.37 19.86 168.11 20.09Q168.85 20.32 169.57 20.32L169.57 20.32Q170.94 20.32 170.95 19.64L170.95 19.64Q170.95 19.28 170.56 19.11Q170.17 18.93 169.30 18.74L169.30 18.74Q168.35 18.53 167.71 18.30Q167.08 18.06 166.62 17.55Q166.17 17.03 166.17 16.16L166.17 16.16Q166.17 15.39 166.59 14.77Q167.01 14.15 167.84 13.79Q168.68 13.43 169.89 13.43L169.89 13.43Q170.71 13.43 171.52 13.62Q172.32 13.80 172.94 14.17L172.94 14.17L172.21 15.93Q171.00 15.28 169.87 15.28L169.87 15.28Q169.16 15.28 168.84 15.49Q168.52 15.70 168.52 16.04L168.52 16.04Q168.52 16.37 168.90 16.54Q169.29 16.71 170.14 16.89L170.14 16.89Q171.10 17.10 171.73 17.33Q172.36 17.56 172.82 18.07Q173.28 18.58 173.28 19.46L173.28 19.46Q173.28 20.21 172.86 20.83Q172.45 21.44 171.61 21.80Q170.76 22.17 169.56 22.17L169.56 22.17Q168.54 22.17 167.58 21.92Q166.62 21.67 166.02 21.24Z" fill="#000000" x="65.76"/></svg>