<svg xmlns="http://www.w3.org/2000/svg" width="147.8" height="35" viewBox="0 0 147.8 35"><rect class="svg__rect" x="0" y="0" width="54.760000000000005" height="35" fill="#000000"/><rect class="svg__rect" x="52.760000000000005" y="0" width="95.04" height="35" fill="#FFFFFF"/><path class="svg__text" d="M14.08 19.16L14.08 19.16L14.08 13.47L15.56 13.47L15.56 19.18Q15.56 20.03 15.99 20.48Q16.43 20.93 17.27 20.93L17.27 20.93Q18.98 20.93 18.98 19.13L18.98 19.13L18.98 13.47L20.46 13.47L20.46 19.17Q20.46 20.53 19.59 21.32Q18.72 22.12 17.27 22.12L17.27 22.12Q15.81 22.12 14.94 21.33Q14.08 20.55 14.08 19.16ZM24.59 19.42L24.59 19.42L26.08 19.42Q26.08 20.15 26.56 20.55Q27.04 20.95 27.93 20.95L27.93 20.95Q28.71 20.95 29.10 20.63Q29.49 20.32 29.49 19.80L29.49 19.80Q29.49 19.24 29.09 18.94Q28.70 18.63 27.66 18.32Q26.63 18.01 26.02 17.63L26.02 17.63Q24.86 16.90 24.86 15.72L24.86 15.72Q24.86 14.69 25.70 14.02Q26.54 13.35 27.88 13.35L27.88 13.35Q28.77 13.35 29.47 13.68Q30.17 14.01 30.56 14.61Q30.96 15.22 30.96 15.96L30.96 15.96L29.49 15.96Q29.49 15.29 29.07 14.91Q28.65 14.54 27.87 14.54L27.87 14.54Q27.14 14.54 26.74 14.85Q26.34 15.16 26.34 15.71L26.34 15.71Q26.34 16.18 26.77 16.50Q27.21 16.81 28.20 17.10Q29.20 17.40 29.80 17.78Q30.41 18.16 30.69 18.65Q30.97 19.13 30.97 19.79L30.97 19.79Q30.97 20.86 30.15 21.49Q29.33 22.12 27.93 22.12L27.93 22.12Q27.01 22.12 26.23 21.77Q25.46 21.43 25.02 20.83Q24.59 20.22 24.59 19.42ZM40.84 22L35.26 22L35.26 13.47L40.80 13.47L40.80 14.66L36.74 14.66L36.74 17.02L40.24 17.02L40.24 18.19L36.74 18.19L36.74 20.82L40.84 20.82L40.84 22Z" fill="#FFFFFF"/><path class="svg__text" d="M69.15 22L66.95 22L66.95 13.60L68.90 13.60L71.86 18.45L74.74 13.60L76.69 13.60L76.72 22L74.54 22L74.51 17.55L72.35 21.17L71.30 21.17L69.15 17.67L69.15 22ZM81.81 18.26L81.81 18.26L81.81 13.60L84.19 13.60L84.19 18.19Q84.19 20.20 85.78 20.20L85.78 20.20Q87.36 20.20 87.36 18.19L87.36 18.19L87.36 13.60L89.71 13.60L89.71 18.26Q89.71 20.13 88.67 21.15Q87.63 22.17 85.76 22.17L85.76 22.17Q83.88 22.17 82.84 21.15Q81.81 20.13 81.81 18.26ZM101.18 22L94.79 22L94.79 13.60L97.17 13.60L97.17 20.11L101.18 20.11L101.18 22ZM107.39 15.48L104.81 15.48L104.81 13.60L112.33 13.60L112.33 15.48L109.76 15.48L109.76 22L107.39 22L107.39 15.48ZM123.44 22L116.70 22L116.70 13.60L123.29 13.60L123.29 15.44L119.06 15.44L119.06 16.85L122.79 16.85L122.79 18.63L119.06 18.63L119.06 20.17L123.44 20.17L123.44 22ZM130.63 22L128.25 22L128.25 13.60L132.09 13.60Q133.23 13.60 134.07 13.98Q134.91 14.35 135.37 15.06Q135.82 15.76 135.82 16.71L135.82 16.71Q135.82 17.62 135.40 18.30Q134.97 18.98 134.18 19.36L134.18 19.36L135.99 22L133.45 22L131.92 19.77L130.63 19.77L130.63 22ZM130.63 15.47L130.63 17.93L131.95 17.93Q132.68 17.93 133.05 17.61Q133.42 17.29 133.42 16.71L133.42 16.71Q133.42 16.12 133.05 15.79Q132.68 15.47 131.95 15.47L131.95 15.47L130.63 15.47Z" fill="#000000" x="65.76"/></svg>