<svg xmlns="http://www.w3.org/2000/svg" width="226.77999999999997" height="35" viewBox="0 0 226.77999999999997 35"><rect class="svg__rect" x="0" y="0" width="54.760000000000005" height="35" fill="#000000"/><rect class="svg__rect" x="52.760000000000005" y="0" width="174.01999999999998" height="35" fill="#FFFFFF"/><path class="svg__text" d="M14.08 19.16L14.08 19.16L14.08 13.47L15.56 13.47L15.56 19.18Q15.56 20.03 15.99 20.48Q16.43 20.93 17.27 20.93L17.27 20.93Q18.98 20.93 18.98 19.13L18.98 19.13L18.98 13.47L20.46 13.47L20.46 19.17Q20.46 20.53 19.59 21.32Q18.72 22.12 17.27 22.12L17.27 22.12Q15.81 22.12 14.94 21.33Q14.08 20.55 14.08 19.16ZM24.59 19.42L24.59 19.42L26.08 19.42Q26.08 20.15 26.56 20.55Q27.04 20.95 27.93 20.95L27.93 20.95Q28.71 20.95 29.10 20.63Q29.49 20.32 29.49 19.80L29.49 19.80Q29.49 19.24 29.09 18.94Q28.70 18.63 27.66 18.32Q26.63 18.01 26.02 17.63L26.02 17.63Q24.86 16.90 24.86 15.72L24.86 15.72Q24.86 14.69 25.70 14.02Q26.54 13.35 27.88 13.35L27.88 13.35Q28.77 13.35 29.47 13.68Q30.17 14.01 30.56 14.61Q30.96 15.22 30.96 15.96L30.96 15.96L29.49 15.96Q29.49 15.29 29.07 14.91Q28.65 14.54 27.87 14.54L27.87 14.54Q27.14 14.54 26.74 14.85Q26.34 15.16 26.34 15.71L26.34 15.71Q26.34 16.18 26.77 16.50Q27.21 16.81 28.20 17.10Q29.20 17.40 29.80 17.78Q30.41 18.16 30.69 18.65Q30.97 19.13 30.97 19.79L30.97 19.79Q30.97 20.86 30.15 21.49Q29.33 22.12 27.93 22.12L27.93 22.12Q27.01 22.12 26.23 21.77Q25.46 21.43 25.02 20.83Q24.59 20.22 24.59 19.42ZM40.84 22L35.26 22L35.26 13.47L40.80 13.47L40.80 14.66L36.74 14.66L36.74 17.02L40.24 17.02L40.24 18.19L36.74 18.19L36.74 20.82L40.84 20.82L40.84 22Z" fill="#FFFFFF"/><path class="svg__text" d="M65.87 20.93L65.87 20.93L67.16 19.40Q67.83 20.27 68.61 20.27L68.61 20.27Q68.61 20.27 68.62 20.27L68.62 20.27Q69.13 20.27 69.40 19.96Q69.67 19.65 69.67 19.05L69.67 19.05L69.67 15.44L66.77 15.44L66.77 13.60L72.03 13.60L72.03 18.91Q72.03 20.54 71.20 21.36Q70.38 22.17 68.79 22.17L68.79 22.17Q67.86 22.17 67.11 21.85Q66.35 21.53 65.87 20.93ZM76.53 21.24L76.53 21.24L77.31 19.49Q77.87 19.86 78.61 20.09Q79.36 20.32 80.08 20.32L80.08 20.32Q81.44 20.32 81.45 19.64L81.45 19.64Q81.45 19.28 81.06 19.11Q80.67 18.93 79.80 18.74L79.80 18.74Q78.85 18.53 78.22 18.30Q77.58 18.06 77.13 17.55Q76.67 17.03 76.67 16.16L76.67 16.16Q76.67 15.39 77.09 14.77Q77.51 14.15 78.35 13.79Q79.18 13.43 80.39 13.43L80.39 13.43Q81.22 13.43 82.02 13.62Q82.83 13.80 83.44 14.17L83.44 14.17L82.71 15.93Q81.51 15.28 80.38 15.28L80.38 15.28Q79.67 15.28 79.35 15.49Q79.02 15.70 79.02 16.04L79.02 16.04Q79.02 16.37 79.41 16.54Q79.79 16.71 80.64 16.89L80.64 16.89Q81.60 17.10 82.23 17.33Q82.86 17.56 83.32 18.07Q83.79 18.58 83.79 19.46L83.79 19.46Q83.79 20.21 83.37 20.83Q82.95 21.44 82.11 21.80Q81.27 22.17 80.07 22.17L80.07 22.17Q79.05 22.17 78.09 21.92Q77.13 21.67 76.53 21.24ZM87.94 17.80L87.94 17.80Q87.94 16.55 88.54 15.55Q89.14 14.56 90.21 14.00Q91.27 13.43 92.60 13.43L92.60 13.43Q93.93 13.43 94.99 14.00Q96.06 14.56 96.66 15.55Q97.27 16.55 97.27 17.80L97.27 17.80Q97.27 19.05 96.66 20.04Q96.06 21.04 95.00 21.60Q93.94 22.17 92.60 22.17L92.60 22.17Q91.27 22.17 90.21 21.60Q89.14 21.04 88.54 20.04Q87.94 19.05 87.94 17.80ZM90.33 17.80L90.33 17.80Q90.33 18.51 90.63 19.05Q90.94 19.60 91.45 19.90Q91.97 20.20 92.60 20.20L92.60 20.20Q93.24 20.20 93.75 19.90Q94.27 19.60 94.57 19.05Q94.87 18.51 94.87 17.80L94.87 17.80Q94.87 17.09 94.57 16.54Q94.27 16 93.75 15.70Q93.24 15.40 92.60 15.40L92.60 15.40Q91.96 15.40 91.45 15.70Q90.94 16 90.63 16.54Q90.33 17.09 90.33 17.80ZM104.33 22L102.00 22L102.00 13.60L103.96 13.60L107.66 18.07L107.66 13.60L109.99 13.60L109.99 22L108.04 22L104.33 17.52L104.33 22ZM117.23 22L114.51 13.60L116.96 13.60L118.65 18.96L120.42 13.60L122.61 13.60L124.30 19.01L126.06 13.60L128.33 13.60L125.61 22L123.06 22L121.46 16.89L119.78 22L117.23 22ZM139.59 22L132.84 22L132.84 13.60L139.43 13.60L139.43 15.44L135.20 15.44L135.20 16.85L138.93 16.85L138.93 18.63L135.20 18.63L135.20 20.17L139.59 20.17L139.59 22ZM148.93 22L144.39 22L144.39 13.60L148.69 13.60Q150.30 13.60 151.14 14.19Q151.98 14.79 151.98 15.79L151.98 15.79Q151.98 16.39 151.68 16.87Q151.39 17.34 150.85 17.62L150.85 17.62Q151.57 17.87 151.98 18.41Q152.38 18.94 152.38 19.70L152.38 19.70Q152.38 20.80 151.50 21.40Q150.61 22 148.93 22L148.93 22ZM146.75 18.58L146.75 20.28L148.74 20.28Q149.99 20.28 149.99 19.43L149.99 19.43Q149.99 18.58 148.74 18.58L148.74 18.58L146.75 18.58ZM146.75 15.31L146.75 16.94L148.38 16.94Q149.58 16.94 149.58 16.12L149.58 16.12Q149.58 15.31 148.38 15.31L148.38 15.31L146.75 15.31ZM158.89 15.48L156.31 15.48L156.31 13.60L163.83 13.60L163.83 15.48L161.27 15.48L161.27 22L158.89 22L158.89 15.48ZM167.78 17.80L167.78 17.80Q167.78 16.55 168.38 15.55Q168.98 14.56 170.05 14.00Q171.11 13.43 172.44 13.43L172.44 13.43Q173.77 13.43 174.83 14.00Q175.90 14.56 176.50 15.55Q177.11 16.55 177.11 17.80L177.11 17.80Q177.11 19.05 176.50 20.04Q175.90 21.04 174.84 21.60Q173.78 22.17 172.44 22.17L172.44 22.17Q171.11 22.17 170.05 21.60Q168.98 21.04 168.38 20.04Q167.78 19.05 167.78 17.80ZM170.17 17.80L170.17 17.80Q170.17 18.51 170.47 19.05Q170.78 19.60 171.29 19.90Q171.81 20.20 172.44 20.20L172.44 20.20Q173.08 20.20 173.59 19.90Q174.11 19.60 174.41 19.05Q174.71 18.51 174.71 17.80L174.71 17.80Q174.71 17.09 174.41 16.54Q174.11 16 173.59 15.70Q173.08 15.40 172.44 15.40L172.44 15.40Q171.80 15.40 171.29 15.70Q170.78 16 170.47 16.54Q170.17 17.09 170.17 17.80ZM184.19 22L181.84 22L181.84 13.60L184.19 13.60L184.19 17.09L187.45 13.60L190.06 13.60L186.63 17.32L190.24 22L187.48 22L185.08 18.95L184.19 19.90L184.19 22ZM201.09 22L194.35 22L194.35 13.60L200.94 13.60L200.94 15.44L196.70 15.44L196.70 16.85L200.44 16.85L200.44 18.63L196.70 18.63L196.70 20.17L201.09 20.17L201.09 22ZM208.23 22L205.90 22L205.90 13.60L207.85 13.60L211.56 18.07L211.56 13.60L213.89 13.60L213.89 22L211.94 22L208.23 17.52L208.23 22Z" fill="#000000" x="65.76"/></svg>